<?xml version="1.0" encoding="UTF-8" standalone="no"?>
<!DOCTYPE svg PUBLIC "-//W3C//DTD SVG 1.1//EN"
 "http://www.w3.org/Graphics/SVG/1.1/DTD/svg11.dtd">
<!-- Generated by graphviz version 2.38.0 (20140413.2041)
 -->
<!-- Title: %3 Pages: 1 -->
<svg width="4235pt" height="784pt"
 viewBox="0.00 0.00 4235.00 783.50" xmlns="http://www.w3.org/2000/svg" xmlns:xlink="http://www.w3.org/1999/xlink">
<g id="graph0" class="graph" transform="scale(1 1) rotate(0) translate(36 747.5)">
<title>%3</title>
<polygon fill="white" stroke="none" points="-36,36 -36,-747.5 4199,-747.5 4199,36 -36,36"/>
<!-- filter_DOCKERUSER -->
<g id="node1" class="node"><title>filter_DOCKERUSER</title>
<polygon fill="none" stroke="black" points="1952,-711.5 1838,-711.5 1838,-619.5 1952,-619.5 1952,-711.5"/>
<polygon fill="none" stroke="black" points="1846,-686.5 1846,-707.5 1944,-707.5 1944,-686.5 1846,-686.5"/>
<text text-anchor="start" x="1849" y="-694.3" font-family="Times,serif" font-style="italic" font-size="14.00">DOCKER&#45;USER</text>
<polygon fill="none" stroke="black" points="1846,-665.5 1846,-686.5 1944,-686.5 1944,-665.5 1846,-665.5"/>
<text text-anchor="start" x="1881.5" y="-673.3" font-family="Times,serif" font-style="italic" font-size="14.00">filter</text>
<polygon fill="none" stroke="black" points="1846,-644.5 1846,-665.5 1944,-665.5 1944,-644.5 1846,-644.5"/>
<text text-anchor="start" x="1861.5" y="-651.3" font-family="Times,serif" font-size="14.00">&#45;j RETURN</text>
<polygon fill="none" stroke="black" points="1846,-623.5 1846,-644.5 1944,-644.5 1944,-623.5 1846,-623.5"/>
<text text-anchor="start" x="1885" y="-630.3" font-family="Times,serif" font-size="14.00">end</text>
</g>
<!-- filter_DOCKERISOLATIONSTAGE1 -->
<g id="node2" class="node"><title>filter_DOCKERISOLATIONSTAGE1</title>
<polygon fill="none" stroke="black" points="2073,-583 1717,-583 1717,-470 2073,-470 2073,-583"/>
<polygon fill="none" stroke="black" points="1725,-557.5 1725,-578.5 2065,-578.5 2065,-557.5 1725,-557.5"/>
<text text-anchor="start" x="1803.5" y="-565.3" font-family="Times,serif" font-style="italic" font-size="14.00">DOCKER&#45;ISOLATION&#45;STAGE&#45;1</text>
<polygon fill="none" stroke="black" points="1725,-536.5 1725,-557.5 2065,-557.5 2065,-536.5 1725,-536.5"/>
<text text-anchor="start" x="1881.5" y="-544.3" font-family="Times,serif" font-style="italic" font-size="14.00">filter</text>
<polygon fill="none" stroke="black" points="1725,-515.5 1725,-536.5 2065,-536.5 2065,-515.5 1725,-515.5"/>
<text text-anchor="start" x="1728" y="-522.3" font-family="Times,serif" font-size="14.00">&#45;i docker0 ! &#45;o docker0 &#45;j DOCKER&#45;ISOLATION&#45;STAGE&#45;2</text>
<polygon fill="none" stroke="black" points="1725,-494.5 1725,-515.5 2065,-515.5 2065,-494.5 1725,-494.5"/>
<text text-anchor="start" x="1861.5" y="-501.3" font-family="Times,serif" font-size="14.00">&#45;j RETURN</text>
<polygon fill="none" stroke="black" points="1725,-473.5 1725,-494.5 2065,-494.5 2065,-473.5 1725,-473.5"/>
<text text-anchor="start" x="1885" y="-480.3" font-family="Times,serif" font-size="14.00">end</text>
</g>
<!-- filter_DOCKERISOLATIONSTAGE2 -->
<g id="node3" class="node"><title>filter_DOCKERISOLATIONSTAGE2</title>
<polygon fill="none" stroke="black" points="2422,-561 2217,-561 2217,-448 2422,-448 2422,-561"/>
<polygon fill="none" stroke="black" points="2225.5,-535.5 2225.5,-556.5 2414.5,-556.5 2414.5,-535.5 2225.5,-535.5"/>
<text text-anchor="start" x="2228.5" y="-543.3" font-family="Times,serif" font-style="italic" font-size="14.00">DOCKER&#45;ISOLATION&#45;STAGE&#45;2</text>
<polygon fill="none" stroke="black" points="2225.5,-514.5 2225.5,-535.5 2414.5,-535.5 2414.5,-514.5 2225.5,-514.5"/>
<text text-anchor="start" x="2306.5" y="-522.3" font-family="Times,serif" font-style="italic" font-size="14.00">filter</text>
<polygon fill="none" stroke="black" points="2225.5,-493.5 2225.5,-514.5 2414.5,-514.5 2414.5,-493.5 2225.5,-493.5"/>
<text text-anchor="start" x="2264.5" y="-500.3" font-family="Times,serif" font-size="14.00">&#45;o docker0 &#45;j DROP</text>
<polygon fill="none" stroke="black" points="2225.5,-472.5 2225.5,-493.5 2414.5,-493.5 2414.5,-472.5 2225.5,-472.5"/>
<text text-anchor="start" x="2286.5" y="-479.3" font-family="Times,serif" font-size="14.00">&#45;j RETURN</text>
<polygon fill="none" stroke="black" points="2225.5,-451.5 2225.5,-472.5 2414.5,-472.5 2414.5,-451.5 2225.5,-451.5"/>
<text text-anchor="start" x="2310" y="-458.3" font-family="Times,serif" font-size="14.00">end</text>
</g>
<!-- filter_DOCKERISOLATIONSTAGE1&#45;&gt;filter_DOCKERISOLATIONSTAGE2 -->
<g id="edge1" class="edge"><title>filter_DOCKERISOLATIONSTAGE1:rule_0&#45;&gt;filter_DOCKERISOLATIONSTAGE2:begin</title>
<path fill="none" stroke="black" d="M2066,-525.5C2132.87,-525.5 2152.13,-525.5 2214.16,-525.5"/>
<polygon fill="black" stroke="black" points="2214.5,-529 2224.5,-525.5 2214.5,-522 2214.5,-529"/>
</g>
<!-- filter_OUTPUT -->
<g id="node4" class="node"><title>filter_OUTPUT</title>
<polygon fill="none" stroke="black" points="3176.5,-124 3101.5,-124 3101.5,-53 3176.5,-53 3176.5,-124"/>
<polygon fill="red" stroke="none" points="3110,-98.5 3110,-119.5 3169,-119.5 3169,-98.5 3110,-98.5"/>
<polygon fill="none" stroke="black" points="3110,-98.5 3110,-119.5 3169,-119.5 3169,-98.5 3110,-98.5"/>
<text text-anchor="start" x="3113" y="-106.3" font-family="Times,serif" font-style="italic" font-size="14.00">OUTPUT</text>
<polygon fill="tomato" stroke="none" points="3110,-77.5 3110,-98.5 3169,-98.5 3169,-77.5 3110,-77.5"/>
<polygon fill="none" stroke="black" points="3110,-77.5 3110,-98.5 3169,-98.5 3169,-77.5 3110,-77.5"/>
<text text-anchor="start" x="3126" y="-85.3" font-family="Times,serif" font-style="italic" font-size="14.00">filter</text>
<polygon fill="none" stroke="black" points="3110,-56.5 3110,-77.5 3169,-77.5 3169,-56.5 3110,-56.5"/>
<text text-anchor="start" x="3129.5" y="-63.3" font-family="Times,serif" font-size="14.00">end</text>
</g>
<!-- mangle_POSTROUTING -->
<g id="node12" class="node"><title>mangle_POSTROUTING</title>
<polygon fill="none" stroke="black" points="3470,-223 3357,-223 3357,-152 3470,-152 3470,-223"/>
<polygon fill="red" stroke="none" points="3365.5,-197.5 3365.5,-218.5 3462.5,-218.5 3462.5,-197.5 3365.5,-197.5"/>
<polygon fill="none" stroke="black" points="3365.5,-197.5 3365.5,-218.5 3462.5,-218.5 3462.5,-197.5 3365.5,-197.5"/>
<text text-anchor="start" x="3368.5" y="-205.3" font-family="Times,serif" font-style="italic" font-size="14.00">POSTROUTING</text>
<polygon fill="tomato" stroke="none" points="3365.5,-176.5 3365.5,-197.5 3462.5,-197.5 3462.5,-176.5 3365.5,-176.5"/>
<polygon fill="none" stroke="black" points="3365.5,-176.5 3365.5,-197.5 3462.5,-197.5 3462.5,-176.5 3365.5,-176.5"/>
<text text-anchor="start" x="3394" y="-184.3" font-family="Times,serif" font-style="italic" font-size="14.00">mangle</text>
<polygon fill="none" stroke="black" points="3365.5,-155.5 3365.5,-176.5 3462.5,-176.5 3462.5,-155.5 3365.5,-155.5"/>
<text text-anchor="start" x="3404" y="-162.3" font-family="Times,serif" font-size="14.00">end</text>
</g>
<!-- filter_OUTPUT&#45;&gt;mangle_POSTROUTING -->
<g id="edge16" class="edge"><title>filter_OUTPUT:end&#45;&gt;mangle_POSTROUTING:begin</title>
<path fill="none" stroke="red" d="M3170,-66.5C3268.1,-66.5 3263.39,-178.437 3354.46,-186.089"/>
<polygon fill="red" stroke="red" points="3354.37,-189.588 3364.5,-186.5 3354.65,-182.594 3354.37,-189.588"/>
</g>
<!-- filter_FORWARD -->
<g id="node5" class="node"><title>filter_FORWARD</title>
<polygon fill="none" stroke="black" points="1573,-518 1141,-518 1141,-321 1573,-321 1573,-518"/>
<polygon fill="red" stroke="none" points="1149,-492.5 1149,-513.5 1565,-513.5 1565,-492.5 1149,-492.5"/>
<polygon fill="none" stroke="black" points="1149,-492.5 1149,-513.5 1565,-513.5 1565,-492.5 1149,-492.5"/>
<text text-anchor="start" x="1324.5" y="-500.3" font-family="Times,serif" font-style="italic" font-size="14.00">FORWARD</text>
<polygon fill="tomato" stroke="none" points="1149,-471.5 1149,-492.5 1565,-492.5 1565,-471.5 1149,-471.5"/>
<polygon fill="none" stroke="black" points="1149,-471.5 1149,-492.5 1565,-492.5 1565,-471.5 1149,-471.5"/>
<text text-anchor="start" x="1343.5" y="-479.3" font-family="Times,serif" font-style="italic" font-size="14.00">filter</text>
<polygon fill="none" stroke="black" points="1149,-450.5 1149,-471.5 1565,-471.5 1565,-450.5 1149,-450.5"/>
<text text-anchor="start" x="1303.5" y="-457.3" font-family="Times,serif" font-size="14.00">&#45;j DOCKER&#45;USER</text>
<polygon fill="none" stroke="black" points="1149,-429.5 1149,-450.5 1565,-450.5 1565,-429.5 1149,-429.5"/>
<text text-anchor="start" x="1255" y="-436.3" font-family="Times,serif" font-size="14.00">&#45;j DOCKER&#45;ISOLATION&#45;STAGE&#45;1</text>
<polygon fill="none" stroke="black" points="1149,-408.5 1149,-429.5 1565,-429.5 1565,-408.5 1149,-408.5"/>
<text text-anchor="start" x="1152" y="-415.3" font-family="Times,serif" font-size="14.00">&#45;o docker0 &#45;m conntrack &#45;&#45;ctstate RELATED,ESTABLISHED &#45;j ACCEPT</text>
<polygon fill="none" stroke="black" points="1149,-387.5 1149,-408.5 1565,-408.5 1565,-387.5 1149,-387.5"/>
<text text-anchor="start" x="1292" y="-394.3" font-family="Times,serif" font-size="14.00">&#45;o docker0 &#45;j DOCKER</text>
<polygon fill="none" stroke="black" points="1149,-366.5 1149,-387.5 1565,-387.5 1565,-366.5 1149,-366.5"/>
<text text-anchor="start" x="1260" y="-373.3" font-family="Times,serif" font-size="14.00">&#45;i docker0 ! &#45;o docker0 &#45;j ACCEPT</text>
<polygon fill="none" stroke="black" points="1149,-345.5 1149,-366.5 1565,-366.5 1565,-345.5 1149,-345.5"/>
<text text-anchor="start" x="1264" y="-352.3" font-family="Times,serif" font-size="14.00">&#45;i docker0 &#45;o docker0 &#45;j ACCEPT</text>
<polygon fill="none" stroke="black" points="1149,-324.5 1149,-345.5 1565,-345.5 1565,-324.5 1149,-324.5"/>
<text text-anchor="start" x="1347" y="-331.3" font-family="Times,serif" font-size="14.00">end</text>
</g>
<!-- filter_FORWARD&#45;&gt;filter_DOCKERUSER -->
<g id="edge2" class="edge"><title>filter_FORWARD:rule_0&#45;&gt;filter_DOCKERUSER:begin</title>
<path fill="none" stroke="black" d="M1566,-461.5C1657.52,-461.5 1643.53,-546.933 1717,-601.5 1767.04,-638.664 1777.93,-672.586 1834.68,-676.185"/>
<polygon fill="black" stroke="black" points="1834.9,-679.693 1845,-676.5 1835.11,-672.697 1834.9,-679.693"/>
</g>
<!-- filter_FORWARD&#45;&gt;filter_DOCKERISOLATIONSTAGE1 -->
<g id="edge3" class="edge"><title>filter_FORWARD:rule_1&#45;&gt;filter_DOCKERISOLATIONSTAGE1:begin</title>
<path fill="none" stroke="black" d="M1566,-440.5C1647.17,-440.5 1640.01,-538.502 1713.59,-546.924"/>
<polygon fill="black" stroke="black" points="1713.82,-550.443 1724,-547.5 1714.21,-543.453 1713.82,-550.443"/>
</g>
<!-- filter_DOCKER -->
<g id="node7" class="node"><title>filter_DOCKER</title>
<polygon fill="none" stroke="black" points="1933.5,-434 1856.5,-434 1856.5,-363 1933.5,-363 1933.5,-434"/>
<polygon fill="none" stroke="black" points="1865,-408.5 1865,-429.5 1926,-429.5 1926,-408.5 1865,-408.5"/>
<text text-anchor="start" x="1868" y="-416.3" font-family="Times,serif" font-style="italic" font-size="14.00">DOCKER</text>
<polygon fill="none" stroke="black" points="1865,-387.5 1865,-408.5 1926,-408.5 1926,-387.5 1865,-387.5"/>
<text text-anchor="start" x="1882" y="-395.3" font-family="Times,serif" font-style="italic" font-size="14.00">filter</text>
<polygon fill="none" stroke="black" points="1865,-366.5 1865,-387.5 1926,-387.5 1926,-366.5 1865,-366.5"/>
<text text-anchor="start" x="1885.5" y="-373.3" font-family="Times,serif" font-size="14.00">end</text>
</g>
<!-- filter_FORWARD&#45;&gt;filter_DOCKER -->
<g id="edge4" class="edge"><title>filter_FORWARD:rule_3&#45;&gt;filter_DOCKER:begin</title>
<path fill="none" stroke="black" d="M1566,-397.5C1694.95,-397.5 1729.74,-397.5 1853.73,-397.5"/>
<polygon fill="black" stroke="black" points="1854,-401 1864,-397.5 1854,-394 1854,-401"/>
</g>
<!-- filter_FORWARD&#45;&gt;mangle_POSTROUTING -->
<g id="edge20" class="edge"><title>filter_FORWARD:end&#45;&gt;mangle_POSTROUTING:begin</title>
<path fill="none" stroke="red" d="M1566,-334.5C1900.66,-334.5 1983.84,-307.5 2318.5,-307.5 2318.5,-307.5 2318.5,-307.5 2744.5,-307.5 2953.37,-307.5 3013,-330.734 3213,-270.5 3283.26,-249.338 3287.28,-192.207 3354.16,-186.897"/>
<polygon fill="red" stroke="red" points="3354.64,-190.381 3364.5,-186.5 3354.37,-183.386 3354.64,-190.381"/>
</g>
<!-- filter_INPUT -->
<g id="node6" class="node"><title>filter_INPUT</title>
<polygon fill="none" stroke="black" points="1388,-114 1326,-114 1326,-43 1388,-43 1388,-114"/>
<polygon fill="red" stroke="none" points="1334,-88.5 1334,-109.5 1380,-109.5 1380,-88.5 1334,-88.5"/>
<polygon fill="none" stroke="black" points="1334,-88.5 1334,-109.5 1380,-109.5 1380,-88.5 1334,-88.5"/>
<text text-anchor="start" x="1337" y="-96.3" font-family="Times,serif" font-style="italic" font-size="14.00">INPUT</text>
<polygon fill="tomato" stroke="none" points="1334,-67.5 1334,-88.5 1380,-88.5 1380,-67.5 1334,-67.5"/>
<polygon fill="none" stroke="black" points="1334,-67.5 1334,-88.5 1380,-88.5 1380,-67.5 1334,-67.5"/>
<text text-anchor="start" x="1343.5" y="-75.3" font-family="Times,serif" font-style="italic" font-size="14.00">filter</text>
<polygon fill="none" stroke="black" points="1334,-46.5 1334,-67.5 1380,-67.5 1380,-46.5 1334,-46.5"/>
<text text-anchor="start" x="1347" y="-53.3" font-family="Times,serif" font-size="14.00">end</text>
</g>
<!-- raw_OUTPUT -->
<g id="node8" class="node"><title>raw_OUTPUT</title>
<polygon fill="none" stroke="black" points="1932.5,-136 1857.5,-136 1857.5,-65 1932.5,-65 1932.5,-136"/>
<polygon fill="red" stroke="none" points="1866,-110.5 1866,-131.5 1925,-131.5 1925,-110.5 1866,-110.5"/>
<polygon fill="none" stroke="black" points="1866,-110.5 1866,-131.5 1925,-131.5 1925,-110.5 1866,-110.5"/>
<text text-anchor="start" x="1869" y="-118.3" font-family="Times,serif" font-style="italic" font-size="14.00">OUTPUT</text>
<polygon fill="tomato" stroke="none" points="1866,-89.5 1866,-110.5 1925,-110.5 1925,-89.5 1866,-89.5"/>
<polygon fill="none" stroke="black" points="1866,-89.5 1866,-110.5 1925,-110.5 1925,-89.5 1866,-89.5"/>
<text text-anchor="start" x="1884.5" y="-97.3" font-family="Times,serif" font-style="italic" font-size="14.00">raw</text>
<polygon fill="none" stroke="black" points="1866,-68.5 1866,-89.5 1925,-89.5 1925,-68.5 1866,-68.5"/>
<text text-anchor="start" x="1885.5" y="-75.3" font-family="Times,serif" font-size="14.00">end</text>
</g>
<!-- filter_INPUT&#45;&gt;raw_OUTPUT -->
<g id="edge12" class="edge"><title>filter_INPUT:end&#45;&gt;raw_OUTPUT:begin</title>
<path fill="none" stroke="red" d="M1381,-56.5C1593.58,-56.5 1647.37,-98.1667 1855,-99.4688"/>
<polygon fill="red" stroke="red" points="1854.99,-102.969 1865,-99.5 1855.01,-95.9688 1854.99,-102.969"/>
</g>
<!-- mangle_OUTPUT -->
<g id="node14" class="node"><title>mangle_OUTPUT</title>
<polygon fill="none" stroke="black" points="2357,-147 2282,-147 2282,-76 2357,-76 2357,-147"/>
<polygon fill="red" stroke="none" points="2290.5,-121.5 2290.5,-142.5 2349.5,-142.5 2349.5,-121.5 2290.5,-121.5"/>
<polygon fill="none" stroke="black" points="2290.5,-121.5 2290.5,-142.5 2349.5,-142.5 2349.5,-121.5 2290.5,-121.5"/>
<text text-anchor="start" x="2293.5" y="-129.3" font-family="Times,serif" font-style="italic" font-size="14.00">OUTPUT</text>
<polygon fill="tomato" stroke="none" points="2290.5,-100.5 2290.5,-121.5 2349.5,-121.5 2349.5,-100.5 2290.5,-100.5"/>
<polygon fill="none" stroke="black" points="2290.5,-100.5 2290.5,-121.5 2349.5,-121.5 2349.5,-100.5 2290.5,-100.5"/>
<text text-anchor="start" x="2300" y="-108.3" font-family="Times,serif" font-style="italic" font-size="14.00">mangle</text>
<polygon fill="none" stroke="black" points="2290.5,-79.5 2290.5,-100.5 2349.5,-100.5 2349.5,-79.5 2290.5,-79.5"/>
<text text-anchor="start" x="2310" y="-86.3" font-family="Times,serif" font-size="14.00">end</text>
</g>
<!-- raw_OUTPUT&#45;&gt;mangle_OUTPUT -->
<g id="edge13" class="edge"><title>raw_OUTPUT:end&#45;&gt;mangle_OUTPUT:begin</title>
<path fill="none" stroke="red" d="M1926,-78.5C2084.7,-78.5 2125.58,-109.14 2279.21,-110.456"/>
<polygon fill="red" stroke="red" points="2279.49,-113.957 2289.5,-110.5 2279.51,-106.957 2279.49,-113.957"/>
</g>
<!-- raw_PREROUTING -->
<g id="node9" class="node"><title>raw_PREROUTING</title>
<polygon fill="none" stroke="black" points="106,-263 7.10543e-15,-263 7.10543e-15,-192 106,-192 106,-263"/>
<polygon fill="red" stroke="none" points="8,-237.5 8,-258.5 98,-258.5 98,-237.5 8,-237.5"/>
<polygon fill="none" stroke="black" points="8,-237.5 8,-258.5 98,-258.5 98,-237.5 8,-237.5"/>
<text text-anchor="start" x="11" y="-245.3" font-family="Times,serif" font-style="italic" font-size="14.00">PREROUTING</text>
<polygon fill="tomato" stroke="none" points="8,-216.5 8,-237.5 98,-237.5 98,-216.5 8,-216.5"/>
<polygon fill="none" stroke="black" points="8,-216.5 8,-237.5 98,-237.5 98,-216.5 8,-216.5"/>
<text text-anchor="start" x="42" y="-224.3" font-family="Times,serif" font-style="italic" font-size="14.00">raw</text>
<polygon fill="none" stroke="black" points="8,-195.5 8,-216.5 98,-216.5 98,-195.5 8,-195.5"/>
<text text-anchor="start" x="43" y="-202.3" font-family="Times,serif" font-size="14.00">end</text>
</g>
<!-- mangle_PREROUTING -->
<g id="node13" class="node"><title>mangle_PREROUTING</title>
<polygon fill="none" stroke="black" points="356,-242 250,-242 250,-171 356,-171 356,-242"/>
<polygon fill="red" stroke="none" points="258,-216.5 258,-237.5 348,-237.5 348,-216.5 258,-216.5"/>
<polygon fill="none" stroke="black" points="258,-216.5 258,-237.5 348,-237.5 348,-216.5 258,-216.5"/>
<text text-anchor="start" x="261" y="-224.3" font-family="Times,serif" font-style="italic" font-size="14.00">PREROUTING</text>
<polygon fill="tomato" stroke="none" points="258,-195.5 258,-216.5 348,-216.5 348,-195.5 258,-195.5"/>
<polygon fill="none" stroke="black" points="258,-195.5 258,-216.5 348,-216.5 348,-195.5 258,-195.5"/>
<text text-anchor="start" x="283" y="-203.3" font-family="Times,serif" font-style="italic" font-size="14.00">mangle</text>
<polygon fill="none" stroke="black" points="258,-174.5 258,-195.5 348,-195.5 348,-174.5 258,-174.5"/>
<text text-anchor="start" x="293" y="-181.3" font-family="Times,serif" font-size="14.00">end</text>
</g>
<!-- raw_PREROUTING&#45;&gt;mangle_PREROUTING -->
<g id="edge8" class="edge"><title>raw_PREROUTING:end&#45;&gt;mangle_PREROUTING:begin</title>
<path fill="none" stroke="red" d="M99,-205.5C165.656,-205.5 184.859,-205.5 246.696,-205.5"/>
<polygon fill="red" stroke="red" points="247,-209 257,-205.5 247,-202 247,-209"/>
</g>
<!-- mangle_FORWARD -->
<g id="node10" class="node"><title>mangle_FORWARD</title>
<polygon fill="none" stroke="black" points="997,-178 910,-178 910,-107 997,-107 997,-178"/>
<polygon fill="red" stroke="none" points="918.5,-152.5 918.5,-173.5 989.5,-173.5 989.5,-152.5 918.5,-152.5"/>
<polygon fill="none" stroke="black" points="918.5,-152.5 918.5,-173.5 989.5,-173.5 989.5,-152.5 918.5,-152.5"/>
<text text-anchor="start" x="921.5" y="-160.3" font-family="Times,serif" font-style="italic" font-size="14.00">FORWARD</text>
<polygon fill="tomato" stroke="none" points="918.5,-131.5 918.5,-152.5 989.5,-152.5 989.5,-131.5 918.5,-131.5"/>
<polygon fill="none" stroke="black" points="918.5,-131.5 918.5,-152.5 989.5,-152.5 989.5,-131.5 918.5,-131.5"/>
<text text-anchor="start" x="934" y="-139.3" font-family="Times,serif" font-style="italic" font-size="14.00">mangle</text>
<polygon fill="none" stroke="black" points="918.5,-110.5 918.5,-131.5 989.5,-131.5 989.5,-110.5 918.5,-110.5"/>
<text text-anchor="start" x="944" y="-117.3" font-family="Times,serif" font-size="14.00">end</text>
</g>
<!-- mangle_FORWARD&#45;&gt;filter_FORWARD -->
<g id="edge19" class="edge"><title>mangle_FORWARD:end&#45;&gt;filter_FORWARD:begin</title>
<path fill="none" stroke="red" d="M990.5,-120.5C1162.36,-120.5 980.321,-467.805 1137.66,-482.05"/>
<polygon fill="red" stroke="red" points="1137.86,-485.561 1148,-482.5 1138.16,-478.568 1137.86,-485.561"/>
</g>
<!-- mangle_INPUT -->
<g id="node11" class="node"><title>mangle_INPUT</title>
<polygon fill="none" stroke="black" points="984.5,-71 922.5,-71 922.5,-0 984.5,-0 984.5,-71"/>
<polygon fill="red" stroke="none" points="930.5,-45.5 930.5,-66.5 976.5,-66.5 976.5,-45.5 930.5,-45.5"/>
<polygon fill="none" stroke="black" points="930.5,-45.5 930.5,-66.5 976.5,-66.5 976.5,-45.5 930.5,-45.5"/>
<text text-anchor="start" x="933.5" y="-53.3" font-family="Times,serif" font-style="italic" font-size="14.00">INPUT</text>
<polygon fill="tomato" stroke="none" points="930.5,-24.5 930.5,-45.5 976.5,-45.5 976.5,-24.5 930.5,-24.5"/>
<polygon fill="none" stroke="black" points="930.5,-24.5 930.5,-45.5 976.5,-45.5 976.5,-24.5 930.5,-24.5"/>
<text text-anchor="start" x="933.5" y="-32.3" font-family="Times,serif" font-style="italic" font-size="14.00">mangle</text>
<polygon fill="none" stroke="black" points="930.5,-3.5 930.5,-24.5 976.5,-24.5 976.5,-3.5 930.5,-3.5"/>
<text text-anchor="start" x="943.5" y="-10.3" font-family="Times,serif" font-size="14.00">end</text>
</g>
<!-- mangle_INPUT&#45;&gt;filter_INPUT -->
<g id="edge11" class="edge"><title>mangle_INPUT:end&#45;&gt;filter_INPUT:begin</title>
<path fill="none" stroke="red" d="M977.5,-13.5C1134.59,-13.5 1170.92,-74.7795 1322.82,-77.4126"/>
<polygon fill="red" stroke="red" points="1322.97,-80.9139 1333,-77.5 1323.03,-73.9142 1322.97,-80.9139"/>
</g>
<!-- nat_POSTROUTING -->
<g id="node19" class="node"><title>nat_POSTROUTING</title>
<polygon fill="none" stroke="black" points="3907,-200.5 3614,-200.5 3614,-108.5 3907,-108.5 3907,-200.5"/>
<polygon fill="red" stroke="none" points="3622.5,-175.5 3622.5,-196.5 3899.5,-196.5 3899.5,-175.5 3622.5,-175.5"/>
<polygon fill="none" stroke="black" points="3622.5,-175.5 3622.5,-196.5 3899.5,-196.5 3899.5,-175.5 3622.5,-175.5"/>
<text text-anchor="start" x="3715.5" y="-183.3" font-family="Times,serif" font-style="italic" font-size="14.00">POSTROUTING</text>
<polygon fill="tomato" stroke="none" points="3622.5,-154.5 3622.5,-175.5 3899.5,-175.5 3899.5,-154.5 3622.5,-154.5"/>
<polygon fill="none" stroke="black" points="3622.5,-154.5 3622.5,-175.5 3899.5,-175.5 3899.5,-154.5 3622.5,-154.5"/>
<text text-anchor="start" x="3752" y="-162.3" font-family="Times,serif" font-style="italic" font-size="14.00">nat</text>
<polygon fill="none" stroke="black" points="3622.5,-133.5 3622.5,-154.5 3899.5,-154.5 3899.5,-133.5 3622.5,-133.5"/>
<text text-anchor="start" x="3625.5" y="-140.3" font-family="Times,serif" font-size="14.00">&#45;s 172.18.0.0/24 ! &#45;o docker0 &#45;j MASQUERADE</text>
<polygon fill="none" stroke="black" points="3622.5,-112.5 3622.5,-133.5 3899.5,-133.5 3899.5,-112.5 3622.5,-112.5"/>
<text text-anchor="start" x="3751" y="-119.3" font-family="Times,serif" font-size="14.00">end</text>
</g>
<!-- mangle_POSTROUTING&#45;&gt;nat_POSTROUTING -->
<g id="edge17" class="edge"><title>mangle_POSTROUTING:end&#45;&gt;nat_POSTROUTING:begin</title>
<path fill="none" stroke="red" d="M3463.5,-165.5C3530.16,-165.5 3549.36,-165.5 3611.2,-165.5"/>
<polygon fill="red" stroke="red" points="3611.5,-169 3621.5,-165.5 3611.5,-162 3611.5,-169"/>
</g>
<!-- nat_PREROUTING -->
<g id="node18" class="node"><title>nat_PREROUTING</title>
<polygon fill="none" stroke="black" points="766,-219.5 500,-219.5 500,-127.5 766,-127.5 766,-219.5"/>
<polygon fill="red" stroke="none" points="508,-194.5 508,-215.5 758,-215.5 758,-194.5 508,-194.5"/>
<polygon fill="none" stroke="black" points="508,-194.5 508,-215.5 758,-215.5 758,-194.5 508,-194.5"/>
<text text-anchor="start" x="591" y="-202.3" font-family="Times,serif" font-style="italic" font-size="14.00">PREROUTING</text>
<polygon fill="tomato" stroke="none" points="508,-173.5 508,-194.5 758,-194.5 758,-173.5 508,-173.5"/>
<polygon fill="none" stroke="black" points="508,-173.5 508,-194.5 758,-194.5 758,-173.5 508,-173.5"/>
<text text-anchor="start" x="624" y="-181.3" font-family="Times,serif" font-style="italic" font-size="14.00">nat</text>
<polygon fill="none" stroke="black" points="508,-152.5 508,-173.5 758,-173.5 758,-152.5 508,-152.5"/>
<text text-anchor="start" x="511" y="-159.3" font-family="Times,serif" font-size="14.00">&#45;m addrtype &#45;&#45;dst&#45;type LOCAL &#45;j DOCKER</text>
<polygon fill="none" stroke="black" points="508,-131.5 508,-152.5 758,-152.5 758,-131.5 508,-131.5"/>
<text text-anchor="start" x="623" y="-138.3" font-family="Times,serif" font-size="14.00">end</text>
</g>
<!-- mangle_PREROUTING&#45;&gt;nat_PREROUTING -->
<g id="edge9" class="edge"><title>mangle_PREROUTING:end&#45;&gt;nat_PREROUTING:begin</title>
<path fill="none" stroke="red" d="M349,-184.5C415.656,-184.5 434.859,-184.5 496.696,-184.5"/>
<polygon fill="red" stroke="red" points="497,-188 507,-184.5 497,-181 497,-188"/>
</g>
<!-- nat_OUTPUT -->
<g id="node16" class="node"><title>nat_OUTPUT</title>
<polygon fill="none" stroke="black" points="2921,-165.5 2566,-165.5 2566,-73.5 2921,-73.5 2921,-165.5"/>
<polygon fill="red" stroke="none" points="2574.5,-140.5 2574.5,-161.5 2913.5,-161.5 2913.5,-140.5 2574.5,-140.5"/>
<polygon fill="none" stroke="black" points="2574.5,-140.5 2574.5,-161.5 2913.5,-161.5 2913.5,-140.5 2574.5,-140.5"/>
<text text-anchor="start" x="2717.5" y="-148.3" font-family="Times,serif" font-style="italic" font-size="14.00">OUTPUT</text>
<polygon fill="tomato" stroke="none" points="2574.5,-119.5 2574.5,-140.5 2913.5,-140.5 2913.5,-119.5 2574.5,-119.5"/>
<polygon fill="none" stroke="black" points="2574.5,-119.5 2574.5,-140.5 2913.5,-140.5 2913.5,-119.5 2574.5,-119.5"/>
<text text-anchor="start" x="2735" y="-127.3" font-family="Times,serif" font-style="italic" font-size="14.00">nat</text>
<polygon fill="none" stroke="black" points="2574.5,-98.5 2574.5,-119.5 2913.5,-119.5 2913.5,-98.5 2574.5,-98.5"/>
<text text-anchor="start" x="2577.5" y="-105.3" font-family="Times,serif" font-size="14.00">! &#45;d 127.0.0.0/8 &#45;m addrtype &#45;&#45;dst&#45;type LOCAL &#45;j DOCKER</text>
<polygon fill="none" stroke="black" points="2574.5,-77.5 2574.5,-98.5 2913.5,-98.5 2913.5,-77.5 2574.5,-77.5"/>
<text text-anchor="start" x="2734" y="-84.3" font-family="Times,serif" font-size="14.00">end</text>
</g>
<!-- mangle_OUTPUT&#45;&gt;nat_OUTPUT -->
<g id="edge14" class="edge"><title>mangle_OUTPUT:end&#45;&gt;nat_OUTPUT:begin</title>
<path fill="none" stroke="red" d="M2350.5,-89.5C2447.83,-89.5 2471.17,-127.745 2563.44,-130.36"/>
<polygon fill="red" stroke="red" points="2563.45,-133.86 2573.5,-130.5 2563.55,-126.861 2563.45,-133.86"/>
</g>
<!-- nat_MASQUERADE -->
<g id="node15" class="node"><title>nat_MASQUERADE</title>
<polygon fill="none" stroke="black" points="4163,-180 4051,-180 4051,-109 4163,-109 4163,-180"/>
<polygon fill="none" stroke="black" points="4059,-154.5 4059,-175.5 4155,-175.5 4155,-154.5 4059,-154.5"/>
<text text-anchor="start" x="4062" y="-162.3" font-family="Times,serif" font-style="italic" font-size="14.00">MASQUERADE</text>
<polygon fill="none" stroke="black" points="4059,-133.5 4059,-154.5 4155,-154.5 4155,-133.5 4059,-133.5"/>
<text text-anchor="start" x="4098" y="-141.3" font-family="Times,serif" font-style="italic" font-size="14.00">nat</text>
<polygon fill="none" stroke="black" points="4059,-112.5 4059,-133.5 4155,-133.5 4155,-112.5 4059,-112.5"/>
<text text-anchor="start" x="4097" y="-119.3" font-family="Times,serif" font-size="14.00">end</text>
</g>
<!-- nat_OUTPUT&#45;&gt;filter_OUTPUT -->
<g id="edge15" class="edge"><title>nat_OUTPUT:end&#45;&gt;filter_OUTPUT:begin</title>
<path fill="none" stroke="red" d="M2914.5,-87.5C2997.4,-87.5 3020.67,-87.5 3098.68,-87.5"/>
<polygon fill="red" stroke="red" points="3099,-91.0001 3109,-87.5 3099,-84.0001 3099,-91.0001"/>
</g>
<!-- nat_DOCKER -->
<g id="node17" class="node"><title>nat_DOCKER</title>
<polygon fill="none" stroke="black" points="3213,-252.5 3065,-252.5 3065,-160.5 3213,-160.5 3213,-252.5"/>
<polygon fill="none" stroke="black" points="3073,-227.5 3073,-248.5 3205,-248.5 3205,-227.5 3073,-227.5"/>
<text text-anchor="start" x="3111.5" y="-235.3" font-family="Times,serif" font-style="italic" font-size="14.00">DOCKER</text>
<polygon fill="none" stroke="black" points="3073,-206.5 3073,-227.5 3205,-227.5 3205,-206.5 3073,-206.5"/>
<text text-anchor="start" x="3130" y="-214.3" font-family="Times,serif" font-style="italic" font-size="14.00">nat</text>
<polygon fill="none" stroke="black" points="3073,-185.5 3073,-206.5 3205,-206.5 3205,-185.5 3073,-185.5"/>
<text text-anchor="start" x="3076" y="-192.3" font-family="Times,serif" font-size="14.00">&#45;i docker0 &#45;j RETURN</text>
<polygon fill="none" stroke="black" points="3073,-164.5 3073,-185.5 3205,-185.5 3205,-164.5 3073,-164.5"/>
<text text-anchor="start" x="3129" y="-171.3" font-family="Times,serif" font-size="14.00">end</text>
</g>
<!-- nat_OUTPUT&#45;&gt;nat_DOCKER -->
<g id="edge5" class="edge"><title>nat_OUTPUT:rule_0&#45;&gt;nat_DOCKER:begin</title>
<path fill="none" stroke="black" d="M2914.5,-108.5C2996.14,-108.5 2987.75,-208.742 3062.01,-216.965"/>
<polygon fill="black" stroke="black" points="3061.83,-220.46 3072,-217.5 3062.2,-213.47 3061.83,-220.46"/>
</g>
<!-- nat_PREROUTING&#45;&gt;mangle_FORWARD -->
<g id="edge18" class="edge"><title>nat_PREROUTING:end&#45;&gt;mangle_FORWARD:begin</title>
<path fill="none" stroke="red" d="M759,-141.5C825.867,-141.5 845.131,-141.5 907.163,-141.5"/>
<polygon fill="red" stroke="red" points="907.5,-145 917.5,-141.5 907.5,-138 907.5,-145"/>
</g>
<!-- nat_PREROUTING&#45;&gt;mangle_INPUT -->
<g id="edge10" class="edge"><title>nat_PREROUTING:end&#45;&gt;mangle_INPUT:begin</title>
<path fill="none" stroke="red" d="M759,-141.5C844.969,-141.5 840.545,-42.6961 919.452,-34.9771"/>
<polygon fill="red" stroke="red" points="919.677,-38.4704 929.5,-34.5 919.345,-31.4783 919.677,-38.4704"/>
</g>
<!-- nat_PREROUTING&#45;&gt;nat_DOCKER -->
<g id="edge6" class="edge"><title>nat_PREROUTING:rule_0&#45;&gt;nat_DOCKER:begin</title>
<path fill="none" stroke="black" d="M759,-162.5C827.695,-162.5 842.077,-185.229 910,-195.5 1106.7,-225.245 1157.06,-233.5 1356,-233.5 1356,-233.5 1356,-233.5 2320.5,-233.5 2651.15,-233.5 2736.19,-217.826 3061.8,-217.505"/>
<polygon fill="black" stroke="black" points="3062,-221.005 3072,-217.5 3062,-214.005 3062,-221.005"/>
</g>
<!-- nat_POSTROUTING&#45;&gt;nat_MASQUERADE -->
<g id="edge7" class="edge"><title>nat_POSTROUTING:rule_0&#45;&gt;nat_MASQUERADE:begin</title>
<path fill="none" stroke="black" d="M3900.5,-143.5C3966.95,-143.5 3986.09,-143.5 4047.73,-143.5"/>
<polygon fill="black" stroke="black" points="4048,-147 4058,-143.5 4048,-140 4048,-147"/>
</g>
</g>
</svg>
