<?xml version="1.0" encoding="UTF-8" standalone="no"?>
<!DOCTYPE svg PUBLIC "-//W3C//DTD SVG 1.1//EN"
 "http://www.w3.org/Graphics/SVG/1.1/DTD/svg11.dtd">
<!-- Generated by graphviz version 2.43.0 (0)
 -->
<!-- Title: %3 Pages: 1 -->
<svg width="4986pt" height="656pt"
 viewBox="0.00 0.00 4986.00 655.57" xmlns="http://www.w3.org/2000/svg" xmlns:xlink="http://www.w3.org/1999/xlink">
<g id="graph0" class="graph" transform="scale(1 1) rotate(0) translate(36 619.57)">
<title>%3</title>
<polygon fill="black" stroke="transparent" points="-36,36 -36,-619.57 4950,-619.57 4950,36 -36,36"/>
<!-- raw_PREROUTING -->
<g id="node1" class="node">
<title>raw_PREROUTING</title>
<polygon fill="red" stroke="transparent" points="0.5,-562.07 0.5,-583.07 109.5,-583.07 109.5,-562.07 0.5,-562.07"/>
<polygon fill="none" stroke="black" points="0.5,-562.07 0.5,-583.07 109.5,-583.07 109.5,-562.07 0.5,-562.07"/>
<text text-anchor="start" x="3.5" y="-569.87" font-family="Times,serif" font-style="italic" font-size="14.00">PREROUTING</text>
<polygon fill="tomato" stroke="transparent" points="0.5,-541.07 0.5,-562.07 109.5,-562.07 109.5,-541.07 0.5,-541.07"/>
<polygon fill="none" stroke="black" points="0.5,-541.07 0.5,-562.07 109.5,-562.07 109.5,-541.07 0.5,-541.07"/>
<text text-anchor="start" x="41" y="-548.87" font-family="Times,serif" font-style="italic" font-size="14.00">raw</text>
<polygon fill="white" stroke="transparent" points="0.5,-520.07 0.5,-541.07 109.5,-541.07 109.5,-520.07 0.5,-520.07"/>
<polygon fill="none" stroke="black" points="0.5,-520.07 0.5,-541.07 109.5,-541.07 109.5,-520.07 0.5,-520.07"/>
<text text-anchor="start" x="41.5" y="-526.87" font-family="Times,serif" font-size="14.00">end</text>
</g>
<!-- mangle_PREROUTING -->
<g id="node15" class="node">
<title>mangle_PREROUTING</title>
<polygon fill="red" stroke="transparent" points="253.5,-541.07 253.5,-562.07 362.5,-562.07 362.5,-541.07 253.5,-541.07"/>
<polygon fill="none" stroke="black" points="253.5,-541.07 253.5,-562.07 362.5,-562.07 362.5,-541.07 253.5,-541.07"/>
<text text-anchor="start" x="256.5" y="-548.87" font-family="Times,serif" font-style="italic" font-size="14.00">PREROUTING</text>
<polygon fill="tomato" stroke="transparent" points="253.5,-520.07 253.5,-541.07 362.5,-541.07 362.5,-520.07 253.5,-520.07"/>
<polygon fill="none" stroke="black" points="253.5,-520.07 253.5,-541.07 362.5,-541.07 362.5,-520.07 253.5,-520.07"/>
<text text-anchor="start" x="281.5" y="-527.87" font-family="Times,serif" font-style="italic" font-size="14.00">mangle</text>
<polygon fill="white" stroke="transparent" points="253.5,-499.07 253.5,-520.07 362.5,-520.07 362.5,-499.07 253.5,-499.07"/>
<polygon fill="none" stroke="black" points="253.5,-499.07 253.5,-520.07 362.5,-520.07 362.5,-499.07 253.5,-499.07"/>
<text text-anchor="start" x="294.5" y="-505.87" font-family="Times,serif" font-size="14.00">end</text>
</g>
<!-- raw_PREROUTING&#45;&gt;mangle_PREROUTING -->
<g id="edge8" class="edge">
<title>raw_PREROUTING:end&#45;&gt;mangle_PREROUTING:begin</title>
<path fill="none" stroke="red" d="M109,-530.07C169.5,-530.07 187.11,-530.07 242.91,-530.07"/>
<polygon fill="red" stroke="red" points="243,-533.57 253,-530.07 243,-526.57 243,-533.57"/>
</g>
<!-- raw_OUTPUT -->
<g id="node2" class="node">
<title>raw_OUTPUT</title>
<polygon fill="red" stroke="transparent" points="2457,-456.07 2457,-477.07 2526,-477.07 2526,-456.07 2457,-456.07"/>
<polygon fill="none" stroke="black" points="2457,-456.07 2457,-477.07 2526,-477.07 2526,-456.07 2457,-456.07"/>
<text text-anchor="start" x="2460" y="-463.87" font-family="Times,serif" font-style="italic" font-size="14.00">OUTPUT</text>
<polygon fill="tomato" stroke="transparent" points="2457,-435.07 2457,-456.07 2526,-456.07 2526,-435.07 2457,-435.07"/>
<polygon fill="none" stroke="black" points="2457,-435.07 2457,-456.07 2526,-456.07 2526,-435.07 2457,-435.07"/>
<text text-anchor="start" x="2477.5" y="-442.87" font-family="Times,serif" font-style="italic" font-size="14.00">raw</text>
<polygon fill="white" stroke="transparent" points="2457,-414.07 2457,-435.07 2526,-435.07 2526,-414.07 2457,-414.07"/>
<polygon fill="none" stroke="black" points="2457,-414.07 2457,-435.07 2526,-435.07 2526,-414.07 2457,-414.07"/>
<text text-anchor="start" x="2478" y="-420.87" font-family="Times,serif" font-size="14.00">end</text>
</g>
<!-- mangle_OUTPUT -->
<g id="node17" class="node">
<title>mangle_OUTPUT</title>
<polygon fill="red" stroke="transparent" points="2756,-435.07 2756,-456.07 2825,-456.07 2825,-435.07 2756,-435.07"/>
<polygon fill="none" stroke="black" points="2756,-435.07 2756,-456.07 2825,-456.07 2825,-435.07 2756,-435.07"/>
<text text-anchor="start" x="2759" y="-442.87" font-family="Times,serif" font-style="italic" font-size="14.00">OUTPUT</text>
<polygon fill="tomato" stroke="transparent" points="2756,-414.07 2756,-435.07 2825,-435.07 2825,-414.07 2756,-414.07"/>
<polygon fill="none" stroke="black" points="2756,-414.07 2756,-435.07 2825,-435.07 2825,-414.07 2756,-414.07"/>
<text text-anchor="start" x="2764" y="-421.87" font-family="Times,serif" font-style="italic" font-size="14.00">mangle</text>
<polygon fill="white" stroke="transparent" points="2756,-393.07 2756,-414.07 2825,-414.07 2825,-393.07 2756,-393.07"/>
<polygon fill="none" stroke="black" points="2756,-393.07 2756,-414.07 2825,-414.07 2825,-393.07 2756,-393.07"/>
<text text-anchor="start" x="2777" y="-399.87" font-family="Times,serif" font-size="14.00">end</text>
</g>
<!-- raw_OUTPUT&#45;&gt;mangle_OUTPUT -->
<g id="edge14" class="edge">
<title>raw_OUTPUT:end&#45;&gt;mangle_OUTPUT:begin</title>
<path fill="none" stroke="red" d="M2527,-424.07C2624.87,-424.07 2651.85,-424.07 2744.87,-424.07"/>
<polygon fill="red" stroke="red" points="2745,-427.57 2755,-424.07 2745,-420.57 2745,-427.57"/>
</g>
<!-- filter_INPUT -->
<g id="node3" class="node">
<title>filter_INPUT</title>
<polygon fill="red" stroke="transparent" points="1406,-467.07 1406,-488.07 1460,-488.07 1460,-467.07 1406,-467.07"/>
<polygon fill="none" stroke="black" points="1406,-467.07 1406,-488.07 1460,-488.07 1460,-467.07 1406,-467.07"/>
<text text-anchor="start" x="1409" y="-474.87" font-family="Times,serif" font-style="italic" font-size="14.00">INPUT</text>
<polygon fill="tomato" stroke="transparent" points="1406,-446.07 1406,-467.07 1460,-467.07 1460,-446.07 1406,-446.07"/>
<polygon fill="none" stroke="black" points="1406,-446.07 1406,-467.07 1460,-467.07 1460,-446.07 1406,-446.07"/>
<text text-anchor="start" x="1415" y="-453.87" font-family="Times,serif" font-style="italic" font-size="14.00">filter</text>
<polygon fill="white" stroke="transparent" points="1406,-425.07 1406,-446.07 1460,-446.07 1460,-425.07 1406,-425.07"/>
<polygon fill="none" stroke="black" points="1406,-425.07 1406,-446.07 1460,-446.07 1460,-425.07 1406,-425.07"/>
<text text-anchor="start" x="1419.5" y="-431.87" font-family="Times,serif" font-size="14.00">end</text>
</g>
<!-- security_INPUT -->
<g id="node20" class="node">
<title>security_INPUT</title>
<polygon fill="red" stroke="transparent" points="2000,-477.07 2000,-498.07 2064,-498.07 2064,-477.07 2000,-477.07"/>
<polygon fill="none" stroke="black" points="2000,-477.07 2000,-498.07 2064,-498.07 2064,-477.07 2000,-477.07"/>
<text text-anchor="start" x="2008" y="-484.87" font-family="Times,serif" font-style="italic" font-size="14.00">INPUT</text>
<polygon fill="tomato" stroke="transparent" points="2000,-456.07 2000,-477.07 2064,-477.07 2064,-456.07 2000,-456.07"/>
<polygon fill="none" stroke="black" points="2000,-456.07 2000,-477.07 2064,-477.07 2064,-456.07 2000,-456.07"/>
<text text-anchor="start" x="2003" y="-463.87" font-family="Times,serif" font-style="italic" font-size="14.00">security</text>
<polygon fill="white" stroke="transparent" points="2000,-435.07 2000,-456.07 2064,-456.07 2064,-435.07 2000,-435.07"/>
<polygon fill="none" stroke="black" points="2000,-435.07 2000,-456.07 2064,-456.07 2064,-435.07 2000,-435.07"/>
<text text-anchor="start" x="2018.5" y="-441.87" font-family="Times,serif" font-size="14.00">end</text>
</g>
<!-- filter_INPUT&#45;&gt;security_INPUT -->
<g id="edge12" class="edge">
<title>filter_INPUT:end&#45;&gt;security_INPUT:begin</title>
<path fill="none" stroke="red" d="M1461,-435.07C1697.12,-435.07 1757.79,-465.19 1988.93,-466.05"/>
<polygon fill="red" stroke="red" points="1988.99,-469.55 1999,-466.07 1989.01,-462.55 1988.99,-469.55"/>
</g>
<!-- filter_OUTPUT -->
<g id="node4" class="node">
<title>filter_OUTPUT</title>
<polygon fill="red" stroke="transparent" points="3582,-307.07 3582,-328.07 3651,-328.07 3651,-307.07 3582,-307.07"/>
<polygon fill="none" stroke="black" points="3582,-307.07 3582,-328.07 3651,-328.07 3651,-307.07 3582,-307.07"/>
<text text-anchor="start" x="3585" y="-314.87" font-family="Times,serif" font-style="italic" font-size="14.00">OUTPUT</text>
<polygon fill="tomato" stroke="transparent" points="3582,-286.07 3582,-307.07 3651,-307.07 3651,-286.07 3582,-286.07"/>
<polygon fill="none" stroke="black" points="3582,-286.07 3582,-307.07 3651,-307.07 3651,-286.07 3582,-286.07"/>
<text text-anchor="start" x="3598.5" y="-293.87" font-family="Times,serif" font-style="italic" font-size="14.00">filter</text>
<polygon fill="white" stroke="transparent" points="3582,-265.07 3582,-286.07 3651,-286.07 3651,-265.07 3582,-265.07"/>
<polygon fill="none" stroke="black" points="3582,-265.07 3582,-286.07 3651,-286.07 3651,-265.07 3582,-265.07"/>
<text text-anchor="start" x="3603" y="-271.87" font-family="Times,serif" font-size="14.00">end</text>
</g>
<!-- security_OUTPUT -->
<g id="node21" class="node">
<title>security_OUTPUT</title>
<polygon fill="red" stroke="transparent" points="3840.5,-254.07 3840.5,-275.07 3909.5,-275.07 3909.5,-254.07 3840.5,-254.07"/>
<polygon fill="none" stroke="black" points="3840.5,-254.07 3840.5,-275.07 3909.5,-275.07 3909.5,-254.07 3840.5,-254.07"/>
<text text-anchor="start" x="3843.5" y="-261.87" font-family="Times,serif" font-style="italic" font-size="14.00">OUTPUT</text>
<polygon fill="tomato" stroke="transparent" points="3840.5,-233.07 3840.5,-254.07 3909.5,-254.07 3909.5,-233.07 3840.5,-233.07"/>
<polygon fill="none" stroke="black" points="3840.5,-233.07 3840.5,-254.07 3909.5,-254.07 3909.5,-233.07 3840.5,-233.07"/>
<text text-anchor="start" x="3846" y="-240.87" font-family="Times,serif" font-style="italic" font-size="14.00">security</text>
<polygon fill="white" stroke="transparent" points="3840.5,-212.07 3840.5,-233.07 3909.5,-233.07 3909.5,-212.07 3840.5,-212.07"/>
<polygon fill="none" stroke="black" points="3840.5,-212.07 3840.5,-233.07 3909.5,-233.07 3909.5,-212.07 3840.5,-212.07"/>
<text text-anchor="start" x="3861.5" y="-218.87" font-family="Times,serif" font-size="14.00">end</text>
</g>
<!-- filter_OUTPUT&#45;&gt;security_OUTPUT -->
<g id="edge17" class="edge">
<title>filter_OUTPUT:end&#45;&gt;security_OUTPUT:begin</title>
<path fill="none" stroke="red" d="M3652,-275.07C3733.28,-275.07 3753.61,-245.64 3829.9,-243.22"/>
<polygon fill="red" stroke="red" points="3830.06,-246.72 3840,-243.07 3829.95,-239.72 3830.06,-246.72"/>
</g>
<!-- filter_FORWARD -->
<g id="node5" class="node">
<title>filter_FORWARD</title>
<polygon fill="red" stroke="transparent" points="1180,-299.07 1180,-320.07 1686,-320.07 1686,-299.07 1180,-299.07"/>
<polygon fill="none" stroke="black" points="1180,-299.07 1180,-320.07 1686,-320.07 1686,-299.07 1180,-299.07"/>
<text text-anchor="start" x="1394" y="-306.87" font-family="Times,serif" font-style="italic" font-size="14.00">FORWARD</text>
<polygon fill="tomato" stroke="transparent" points="1180,-278.07 1180,-299.07 1686,-299.07 1686,-278.07 1180,-278.07"/>
<polygon fill="none" stroke="black" points="1180,-278.07 1180,-299.07 1686,-299.07 1686,-278.07 1180,-278.07"/>
<text text-anchor="start" x="1415" y="-285.87" font-family="Times,serif" font-style="italic" font-size="14.00">filter</text>
<polygon fill="darkgrey" stroke="transparent" points="1180,-257.07 1180,-278.07 1686,-278.07 1686,-257.07 1180,-257.07"/>
<polygon fill="none" stroke="black" points="1180,-257.07 1180,-278.07 1686,-278.07 1686,-257.07 1180,-257.07"/>
<text text-anchor="start" x="1370" y="-263.87" font-family="Times,serif" font-size="14.00">&#45;j DOCKER&#45;USER</text>
<polygon fill="darkgrey" stroke="transparent" points="1180,-236.07 1180,-257.07 1686,-257.07 1686,-236.07 1180,-236.07"/>
<polygon fill="none" stroke="black" points="1180,-236.07 1180,-257.07 1686,-257.07 1686,-236.07 1180,-236.07"/>
<text text-anchor="start" x="1316" y="-242.87" font-family="Times,serif" font-size="14.00">&#45;j DOCKER&#45;ISOLATION&#45;STAGE&#45;1</text>
<polygon fill="darkgrey" stroke="transparent" points="1180,-215.07 1180,-236.07 1686,-236.07 1686,-215.07 1180,-215.07"/>
<polygon fill="none" stroke="black" points="1180,-215.07 1180,-236.07 1686,-236.07 1686,-215.07 1180,-215.07"/>
<text text-anchor="start" x="1183" y="-221.87" font-family="Times,serif" font-size="14.00">&#45;o docker0 &#45;m conntrack &#45;&#45;ctstate RELATED,ESTABLISHED &#45;j ACCEPT</text>
<polygon fill="darkgrey" stroke="transparent" points="1180,-194.07 1180,-215.07 1686,-215.07 1686,-194.07 1180,-194.07"/>
<polygon fill="none" stroke="black" points="1180,-194.07 1180,-215.07 1686,-215.07 1686,-194.07 1180,-194.07"/>
<text text-anchor="start" x="1354.5" y="-200.87" font-family="Times,serif" font-size="14.00">&#45;o docker0 &#45;j DOCKER</text>
<polygon fill="darkgrey" stroke="transparent" points="1180,-173.07 1180,-194.07 1686,-194.07 1686,-173.07 1180,-173.07"/>
<polygon fill="none" stroke="black" points="1180,-173.07 1180,-194.07 1686,-194.07 1686,-173.07 1180,-173.07"/>
<text text-anchor="start" x="1314" y="-179.87" font-family="Times,serif" font-size="14.00">&#45;i docker0 ! &#45;o docker0 &#45;j ACCEPT</text>
<polygon fill="darkgrey" stroke="transparent" points="1180,-152.07 1180,-173.07 1686,-173.07 1686,-152.07 1180,-152.07"/>
<polygon fill="none" stroke="black" points="1180,-152.07 1180,-173.07 1686,-173.07 1686,-152.07 1180,-152.07"/>
<text text-anchor="start" x="1319" y="-158.87" font-family="Times,serif" font-size="14.00">&#45;i docker0 &#45;o docker0 &#45;j ACCEPT</text>
<polygon fill="white" stroke="transparent" points="1180,-131.07 1180,-152.07 1686,-152.07 1686,-131.07 1180,-131.07"/>
<polygon fill="none" stroke="black" points="1180,-131.07 1180,-152.07 1686,-152.07 1686,-131.07 1180,-131.07"/>
<text text-anchor="start" x="1419.5" y="-137.87" font-family="Times,serif" font-size="14.00">end</text>
</g>
<!-- filter_DOCKERUSER -->
<g id="node6" class="node">
<title>filter_DOCKERUSER</title>
<polygon fill="white" stroke="transparent" points="1973,-378.07 1973,-399.07 2091,-399.07 2091,-378.07 1973,-378.07"/>
<polygon fill="none" stroke="black" points="1973,-378.07 1973,-399.07 2091,-399.07 2091,-378.07 1973,-378.07"/>
<text text-anchor="start" x="1976" y="-385.87" font-family="Times,serif" font-style="italic" font-size="14.00">DOCKER&#45;USER</text>
<polygon fill="white" stroke="transparent" points="1973,-357.07 1973,-378.07 2091,-378.07 2091,-357.07 1973,-357.07"/>
<polygon fill="none" stroke="black" points="1973,-357.07 1973,-378.07 2091,-378.07 2091,-357.07 1973,-357.07"/>
<text text-anchor="start" x="2014" y="-364.87" font-family="Times,serif" font-style="italic" font-size="14.00">filter</text>
<polygon fill="darkgrey" stroke="transparent" points="1973,-336.07 1973,-357.07 2091,-357.07 2091,-336.07 1973,-336.07"/>
<polygon fill="none" stroke="black" points="1973,-336.07 1973,-357.07 2091,-357.07 2091,-336.07 1973,-336.07"/>
<text text-anchor="start" x="1992.5" y="-342.87" font-family="Times,serif" font-size="14.00">&#45;j RETURN</text>
<polygon fill="white" stroke="transparent" points="1973,-315.07 1973,-336.07 2091,-336.07 2091,-315.07 1973,-315.07"/>
<polygon fill="none" stroke="black" points="1973,-315.07 1973,-336.07 2091,-336.07 2091,-315.07 1973,-315.07"/>
<text text-anchor="start" x="2018.5" y="-321.87" font-family="Times,serif" font-size="14.00">end</text>
</g>
<!-- filter_FORWARD&#45;&gt;filter_DOCKERUSER -->
<g id="edge1" class="edge">
<title>filter_FORWARD:rule_0&#45;&gt;filter_DOCKERUSER:begin</title>
<path fill="none" stroke="white" d="M1686,-268.07C1817.24,-268.07 1836.42,-363.05 1961.97,-367.88"/>
<polygon fill="white" stroke="white" points="1961.94,-371.38 1972,-368.07 1962.07,-364.38 1961.94,-371.38"/>
</g>
<!-- filter_DOCKERISOLATIONSTAGE1 -->
<g id="node7" class="node">
<title>filter_DOCKERISOLATIONSTAGE1</title>
<polygon fill="white" stroke="transparent" points="1830,-257.07 1830,-278.07 2234,-278.07 2234,-257.07 1830,-257.07"/>
<polygon fill="none" stroke="black" points="1830,-257.07 1830,-278.07 2234,-278.07 2234,-257.07 1830,-257.07"/>
<text text-anchor="start" x="1922" y="-264.87" font-family="Times,serif" font-style="italic" font-size="14.00">DOCKER&#45;ISOLATION&#45;STAGE&#45;1</text>
<polygon fill="white" stroke="transparent" points="1830,-236.07 1830,-257.07 2234,-257.07 2234,-236.07 1830,-236.07"/>
<polygon fill="none" stroke="black" points="1830,-236.07 1830,-257.07 2234,-257.07 2234,-236.07 1830,-236.07"/>
<text text-anchor="start" x="2014" y="-243.87" font-family="Times,serif" font-style="italic" font-size="14.00">filter</text>
<polygon fill="darkgrey" stroke="transparent" points="1830,-215.07 1830,-236.07 2234,-236.07 2234,-215.07 1830,-215.07"/>
<polygon fill="none" stroke="black" points="1830,-215.07 1830,-236.07 2234,-236.07 2234,-215.07 1830,-215.07"/>
<text text-anchor="start" x="1833" y="-221.87" font-family="Times,serif" font-size="14.00">&#45;i docker0 ! &#45;o docker0 &#45;j DOCKER&#45;ISOLATION&#45;STAGE&#45;2</text>
<polygon fill="darkgrey" stroke="transparent" points="1830,-194.07 1830,-215.07 2234,-215.07 2234,-194.07 1830,-194.07"/>
<polygon fill="none" stroke="black" points="1830,-194.07 1830,-215.07 2234,-215.07 2234,-194.07 1830,-194.07"/>
<text text-anchor="start" x="1992.5" y="-200.87" font-family="Times,serif" font-size="14.00">&#45;j RETURN</text>
<polygon fill="white" stroke="transparent" points="1830,-173.07 1830,-194.07 2234,-194.07 2234,-173.07 1830,-173.07"/>
<polygon fill="none" stroke="black" points="1830,-173.07 1830,-194.07 2234,-194.07 2234,-173.07 1830,-173.07"/>
<text text-anchor="start" x="2018.5" y="-179.87" font-family="Times,serif" font-size="14.00">end</text>
</g>
<!-- filter_FORWARD&#45;&gt;filter_DOCKERISOLATIONSTAGE1 -->
<g id="edge2" class="edge">
<title>filter_FORWARD:rule_1&#45;&gt;filter_DOCKERISOLATIONSTAGE1:begin</title>
<path fill="none" stroke="white" d="M1686,-247.07C1746.5,-247.07 1764.11,-247.07 1819.91,-247.07"/>
<polygon fill="white" stroke="white" points="1820,-250.57 1830,-247.07 1820,-243.57 1820,-250.57"/>
</g>
<!-- filter_DOCKER -->
<g id="node8" class="node">
<title>filter_DOCKER</title>
<polygon fill="white" stroke="transparent" points="1997,-116.07 1997,-137.07 2068,-137.07 2068,-116.07 1997,-116.07"/>
<polygon fill="none" stroke="black" points="1997,-116.07 1997,-137.07 2068,-137.07 2068,-116.07 1997,-116.07"/>
<text text-anchor="start" x="2000" y="-123.87" font-family="Times,serif" font-style="italic" font-size="14.00">DOCKER</text>
<polygon fill="white" stroke="transparent" points="1997,-95.07 1997,-116.07 2068,-116.07 2068,-95.07 1997,-95.07"/>
<polygon fill="none" stroke="black" points="1997,-95.07 1997,-116.07 2068,-116.07 2068,-95.07 1997,-95.07"/>
<text text-anchor="start" x="2014.5" y="-102.87" font-family="Times,serif" font-style="italic" font-size="14.00">filter</text>
<polygon fill="white" stroke="transparent" points="1997,-74.07 1997,-95.07 2068,-95.07 2068,-74.07 1997,-74.07"/>
<polygon fill="none" stroke="black" points="1997,-74.07 1997,-95.07 2068,-95.07 2068,-74.07 1997,-74.07"/>
<text text-anchor="start" x="2019" y="-80.87" font-family="Times,serif" font-size="14.00">end</text>
</g>
<!-- filter_FORWARD&#45;&gt;filter_DOCKER -->
<g id="edge3" class="edge">
<title>filter_FORWARD:rule_3&#45;&gt;filter_DOCKER:begin</title>
<path fill="none" stroke="white" d="M1686,-204.07C1753.6,-204.07 1765.62,-175.71 1830,-155.07 1900.08,-132.6 1917.43,-107.44 1985.98,-105.22"/>
<polygon fill="white" stroke="white" points="1986.06,-108.72 1996,-105.07 1985.95,-101.72 1986.06,-108.72"/>
</g>
<!-- security_FORWARD -->
<g id="node22" class="node">
<title>security_FORWARD</title>
<polygon fill="red" stroke="transparent" points="2748,-46.07 2748,-67.07 2832,-67.07 2832,-46.07 2748,-46.07"/>
<polygon fill="none" stroke="black" points="2748,-46.07 2748,-67.07 2832,-67.07 2832,-46.07 2748,-46.07"/>
<text text-anchor="start" x="2751" y="-53.87" font-family="Times,serif" font-style="italic" font-size="14.00">FORWARD</text>
<polygon fill="tomato" stroke="transparent" points="2748,-25.07 2748,-46.07 2832,-46.07 2832,-25.07 2748,-25.07"/>
<polygon fill="none" stroke="black" points="2748,-25.07 2748,-46.07 2832,-46.07 2832,-25.07 2748,-25.07"/>
<text text-anchor="start" x="2761" y="-32.87" font-family="Times,serif" font-style="italic" font-size="14.00">security</text>
<polygon fill="white" stroke="transparent" points="2748,-4.07 2748,-25.07 2832,-25.07 2832,-4.07 2748,-4.07"/>
<polygon fill="none" stroke="black" points="2748,-4.07 2748,-25.07 2832,-25.07 2832,-4.07 2748,-4.07"/>
<text text-anchor="start" x="2776.5" y="-10.87" font-family="Times,serif" font-size="14.00">end</text>
</g>
<!-- filter_FORWARD&#45;&gt;security_FORWARD -->
<g id="edge22" class="edge">
<title>filter_FORWARD:end&#45;&gt;security_FORWARD:begin</title>
<path fill="none" stroke="red" d="M1686,-141.07C1760.32,-141.07 1758.54,-76.47 1830,-56.07 2219.17,55.02 2337.92,-33.57 2737.9,-35.05"/>
<polygon fill="red" stroke="red" points="2737.99,-38.55 2748,-35.07 2738.01,-31.55 2737.99,-38.55"/>
</g>
<!-- filter_DOCKERISOLATIONSTAGE2 -->
<g id="node9" class="node">
<title>filter_DOCKERISOLATIONSTAGE2</title>
<polygon fill="white" stroke="transparent" points="2378,-235.07 2378,-256.07 2604,-256.07 2604,-235.07 2378,-235.07"/>
<polygon fill="none" stroke="black" points="2378,-235.07 2378,-256.07 2604,-256.07 2604,-235.07 2378,-235.07"/>
<text text-anchor="start" x="2381" y="-242.87" font-family="Times,serif" font-style="italic" font-size="14.00">DOCKER&#45;ISOLATION&#45;STAGE&#45;2</text>
<polygon fill="white" stroke="transparent" points="2378,-214.07 2378,-235.07 2604,-235.07 2604,-214.07 2378,-214.07"/>
<polygon fill="none" stroke="black" points="2378,-214.07 2378,-235.07 2604,-235.07 2604,-214.07 2378,-214.07"/>
<text text-anchor="start" x="2473" y="-221.87" font-family="Times,serif" font-style="italic" font-size="14.00">filter</text>
<polygon fill="darkgrey" stroke="transparent" points="2378,-193.07 2378,-214.07 2604,-214.07 2604,-193.07 2378,-193.07"/>
<polygon fill="none" stroke="black" points="2378,-193.07 2378,-214.07 2604,-214.07 2604,-193.07 2378,-193.07"/>
<text text-anchor="start" x="2423" y="-199.87" font-family="Times,serif" font-size="14.00">&#45;o docker0 &#45;j DROP</text>
<polygon fill="darkgrey" stroke="transparent" points="2378,-172.07 2378,-193.07 2604,-193.07 2604,-172.07 2378,-172.07"/>
<polygon fill="none" stroke="black" points="2378,-172.07 2378,-193.07 2604,-193.07 2604,-172.07 2378,-172.07"/>
<text text-anchor="start" x="2451.5" y="-178.87" font-family="Times,serif" font-size="14.00">&#45;j RETURN</text>
<polygon fill="white" stroke="transparent" points="2378,-151.07 2378,-172.07 2604,-172.07 2604,-151.07 2378,-151.07"/>
<polygon fill="none" stroke="black" points="2378,-151.07 2378,-172.07 2604,-172.07 2604,-151.07 2378,-151.07"/>
<text text-anchor="start" x="2477.5" y="-157.87" font-family="Times,serif" font-size="14.00">end</text>
</g>
<!-- filter_DOCKERISOLATIONSTAGE1&#45;&gt;filter_DOCKERISOLATIONSTAGE2 -->
<g id="edge4" class="edge">
<title>filter_DOCKERISOLATIONSTAGE1:rule_0&#45;&gt;filter_DOCKERISOLATIONSTAGE2:begin</title>
<path fill="none" stroke="white" d="M2234,-225.07C2294.5,-225.07 2312.11,-225.07 2367.91,-225.07"/>
<polygon fill="white" stroke="white" points="2368,-228.57 2378,-225.07 2368,-221.57 2368,-228.57"/>
</g>
<!-- nat_PREROUTING -->
<g id="node10" class="node">
<title>nat_PREROUTING</title>
<polygon fill="red" stroke="transparent" points="506,-519.07 506,-540.07 808,-540.07 808,-519.07 506,-519.07"/>
<polygon fill="none" stroke="black" points="506,-519.07 506,-540.07 808,-540.07 808,-519.07 506,-519.07"/>
<text text-anchor="start" x="605.5" y="-526.87" font-family="Times,serif" font-style="italic" font-size="14.00">PREROUTING</text>
<polygon fill="tomato" stroke="transparent" points="506,-498.07 506,-519.07 808,-519.07 808,-498.07 506,-498.07"/>
<polygon fill="none" stroke="black" points="506,-498.07 506,-519.07 808,-519.07 808,-498.07 506,-498.07"/>
<text text-anchor="start" x="645" y="-505.87" font-family="Times,serif" font-style="italic" font-size="14.00">nat</text>
<polygon fill="darkgrey" stroke="transparent" points="506,-477.07 506,-498.07 808,-498.07 808,-477.07 506,-477.07"/>
<polygon fill="none" stroke="black" points="506,-477.07 506,-498.07 808,-498.07 808,-477.07 506,-477.07"/>
<text text-anchor="start" x="509" y="-483.87" font-family="Times,serif" font-size="14.00">&#45;m addrtype &#45;&#45;dst&#45;type LOCAL &#45;j DOCKER</text>
<polygon fill="white" stroke="transparent" points="506,-456.07 506,-477.07 808,-477.07 808,-456.07 506,-456.07"/>
<polygon fill="none" stroke="black" points="506,-456.07 506,-477.07 808,-477.07 808,-456.07 506,-456.07"/>
<text text-anchor="start" x="643.5" y="-462.87" font-family="Times,serif" font-size="14.00">end</text>
</g>
<!-- nat_DOCKER -->
<g id="node13" class="node">
<title>nat_DOCKER</title>
<polygon fill="white" stroke="transparent" points="3536,-528.07 3536,-549.07 3696,-549.07 3696,-528.07 3536,-528.07"/>
<polygon fill="none" stroke="black" points="3536,-528.07 3536,-549.07 3696,-549.07 3696,-528.07 3536,-528.07"/>
<text text-anchor="start" x="3583.5" y="-535.87" font-family="Times,serif" font-style="italic" font-size="14.00">DOCKER</text>
<polygon fill="white" stroke="transparent" points="3536,-507.07 3536,-528.07 3696,-528.07 3696,-507.07 3536,-507.07"/>
<polygon fill="none" stroke="black" points="3536,-507.07 3536,-528.07 3696,-528.07 3696,-507.07 3536,-507.07"/>
<text text-anchor="start" x="3604" y="-514.87" font-family="Times,serif" font-style="italic" font-size="14.00">nat</text>
<polygon fill="darkgrey" stroke="transparent" points="3536,-486.07 3536,-507.07 3696,-507.07 3696,-486.07 3536,-486.07"/>
<polygon fill="none" stroke="black" points="3536,-486.07 3536,-507.07 3696,-507.07 3696,-486.07 3536,-486.07"/>
<text text-anchor="start" x="3539" y="-492.87" font-family="Times,serif" font-size="14.00">&#45;i docker0 &#45;j RETURN</text>
<polygon fill="white" stroke="transparent" points="3536,-465.07 3536,-486.07 3696,-486.07 3696,-465.07 3536,-465.07"/>
<polygon fill="none" stroke="black" points="3536,-465.07 3536,-486.07 3696,-486.07 3696,-465.07 3536,-465.07"/>
<text text-anchor="start" x="3602.5" y="-471.87" font-family="Times,serif" font-size="14.00">end</text>
</g>
<!-- nat_PREROUTING&#45;&gt;nat_DOCKER -->
<g id="edge5" class="edge">
<title>nat_PREROUTING:rule_0&#45;&gt;nat_DOCKER:begin</title>
<path fill="none" stroke="white" d="M808,-487.07C873.37,-487.07 887.28,-507.87 952,-517.07 1163.84,-547.17 1218.03,-554.07 1432,-554.07 1432,-554.07 1432,-554.07 2791,-554.07 3119.1,-554.07 3202.79,-518.8 3525.88,-518.08"/>
<polygon fill="white" stroke="white" points="3526,-521.58 3536,-518.07 3526,-514.58 3526,-521.58"/>
</g>
<!-- mangle_INPUT -->
<g id="node16" class="node">
<title>mangle_INPUT</title>
<polygon fill="red" stroke="transparent" points="965,-477.07 965,-498.07 1024,-498.07 1024,-477.07 965,-477.07"/>
<polygon fill="none" stroke="black" points="965,-477.07 965,-498.07 1024,-498.07 1024,-477.07 965,-477.07"/>
<text text-anchor="start" x="970.5" y="-484.87" font-family="Times,serif" font-style="italic" font-size="14.00">INPUT</text>
<polygon fill="tomato" stroke="transparent" points="965,-456.07 965,-477.07 1024,-477.07 1024,-456.07 965,-456.07"/>
<polygon fill="none" stroke="black" points="965,-456.07 965,-477.07 1024,-477.07 1024,-456.07 965,-456.07"/>
<text text-anchor="start" x="968" y="-463.87" font-family="Times,serif" font-style="italic" font-size="14.00">mangle</text>
<polygon fill="white" stroke="transparent" points="965,-435.07 965,-456.07 1024,-456.07 1024,-435.07 965,-435.07"/>
<polygon fill="none" stroke="black" points="965,-435.07 965,-456.07 1024,-456.07 1024,-435.07 965,-435.07"/>
<text text-anchor="start" x="981" y="-441.87" font-family="Times,serif" font-size="14.00">end</text>
</g>
<!-- nat_PREROUTING&#45;&gt;mangle_INPUT -->
<g id="edge10" class="edge">
<title>nat_PREROUTING:end&#45;&gt;mangle_INPUT:begin</title>
<path fill="none" stroke="red" d="M808,-466.07C873.81,-466.07 892.77,-466.07 953.83,-466.07"/>
<polygon fill="red" stroke="red" points="954,-469.57 964,-466.07 954,-462.57 954,-469.57"/>
</g>
<!-- mangle_FORWARD -->
<g id="node18" class="node">
<title>mangle_FORWARD</title>
<polygon fill="red" stroke="transparent" points="952,-350.07 952,-371.07 1036,-371.07 1036,-350.07 952,-350.07"/>
<polygon fill="none" stroke="black" points="952,-350.07 952,-371.07 1036,-371.07 1036,-350.07 952,-350.07"/>
<text text-anchor="start" x="955" y="-357.87" font-family="Times,serif" font-style="italic" font-size="14.00">FORWARD</text>
<polygon fill="tomato" stroke="transparent" points="952,-329.07 952,-350.07 1036,-350.07 1036,-329.07 952,-329.07"/>
<polygon fill="none" stroke="black" points="952,-329.07 952,-350.07 1036,-350.07 1036,-329.07 952,-329.07"/>
<text text-anchor="start" x="967.5" y="-336.87" font-family="Times,serif" font-style="italic" font-size="14.00">mangle</text>
<polygon fill="white" stroke="transparent" points="952,-308.07 952,-329.07 1036,-329.07 1036,-308.07 952,-308.07"/>
<polygon fill="none" stroke="black" points="952,-308.07 952,-329.07 1036,-329.07 1036,-308.07 952,-308.07"/>
<text text-anchor="start" x="980.5" y="-314.87" font-family="Times,serif" font-size="14.00">end</text>
</g>
<!-- nat_PREROUTING&#45;&gt;mangle_FORWARD -->
<g id="edge20" class="edge">
<title>nat_PREROUTING:end&#45;&gt;mangle_FORWARD:begin</title>
<path fill="none" stroke="red" d="M808,-466.07C889.67,-466.07 868.75,-349.75 941.6,-339.75"/>
<polygon fill="red" stroke="red" points="942.25,-343.21 952,-339.07 941.79,-336.23 942.25,-343.21"/>
</g>
<!-- nat_OUTPUT -->
<g id="node11" class="node">
<title>nat_OUTPUT</title>
<polygon fill="red" stroke="transparent" points="2976,-413.07 2976,-434.07 3392,-434.07 3392,-413.07 2976,-413.07"/>
<polygon fill="none" stroke="black" points="2976,-413.07 2976,-434.07 3392,-434.07 3392,-413.07 2976,-413.07"/>
<text text-anchor="start" x="3152.5" y="-420.87" font-family="Times,serif" font-style="italic" font-size="14.00">OUTPUT</text>
<polygon fill="tomato" stroke="transparent" points="2976,-392.07 2976,-413.07 3392,-413.07 3392,-392.07 2976,-392.07"/>
<polygon fill="none" stroke="black" points="2976,-392.07 2976,-413.07 3392,-413.07 3392,-392.07 2976,-392.07"/>
<text text-anchor="start" x="3172" y="-399.87" font-family="Times,serif" font-style="italic" font-size="14.00">nat</text>
<polygon fill="darkgrey" stroke="transparent" points="2976,-371.07 2976,-392.07 3392,-392.07 3392,-371.07 2976,-371.07"/>
<polygon fill="none" stroke="black" points="2976,-371.07 2976,-392.07 3392,-392.07 3392,-371.07 2976,-371.07"/>
<text text-anchor="start" x="2979" y="-377.87" font-family="Times,serif" font-size="14.00">! &#45;d 127.0.0.0/8 &#45;m addrtype &#45;&#45;dst&#45;type LOCAL &#45;j DOCKER</text>
<polygon fill="white" stroke="transparent" points="2976,-350.07 2976,-371.07 3392,-371.07 3392,-350.07 2976,-350.07"/>
<polygon fill="none" stroke="black" points="2976,-350.07 2976,-371.07 3392,-371.07 3392,-350.07 2976,-350.07"/>
<text text-anchor="start" x="3170.5" y="-356.87" font-family="Times,serif" font-size="14.00">end</text>
</g>
<!-- nat_OUTPUT&#45;&gt;filter_OUTPUT -->
<g id="edge16" class="edge">
<title>nat_OUTPUT:end&#45;&gt;filter_OUTPUT:begin</title>
<path fill="none" stroke="red" d="M3392,-360.07C3477.22,-360.07 3491.29,-300.97 3570.95,-296.35"/>
<polygon fill="red" stroke="red" points="3571.1,-299.85 3581,-296.07 3570.9,-292.85 3571.1,-299.85"/>
</g>
<!-- nat_OUTPUT&#45;&gt;nat_DOCKER -->
<g id="edge6" class="edge">
<title>nat_OUTPUT:rule_0&#45;&gt;nat_DOCKER:begin</title>
<path fill="none" stroke="white" d="M3392,-381.07C3476.71,-381.07 3450.14,-507.06 3525.72,-517.39"/>
<polygon fill="white" stroke="white" points="3525.79,-520.91 3536,-518.07 3526.25,-513.92 3525.79,-520.91"/>
</g>
<!-- nat_POSTROUTING -->
<g id="node12" class="node">
<title>nat_POSTROUTING</title>
<polygon fill="red" stroke="transparent" points="4315.5,-115.07 4315.5,-136.07 4654.5,-136.07 4654.5,-115.07 4315.5,-115.07"/>
<polygon fill="none" stroke="black" points="4315.5,-115.07 4315.5,-136.07 4654.5,-136.07 4654.5,-115.07 4315.5,-115.07"/>
<text text-anchor="start" x="4429" y="-122.87" font-family="Times,serif" font-style="italic" font-size="14.00">POSTROUTING</text>
<polygon fill="tomato" stroke="transparent" points="4315.5,-94.07 4315.5,-115.07 4654.5,-115.07 4654.5,-94.07 4315.5,-94.07"/>
<polygon fill="none" stroke="black" points="4315.5,-94.07 4315.5,-115.07 4654.5,-115.07 4654.5,-94.07 4315.5,-94.07"/>
<text text-anchor="start" x="4473" y="-101.87" font-family="Times,serif" font-style="italic" font-size="14.00">nat</text>
<polygon fill="darkgrey" stroke="transparent" points="4315.5,-73.07 4315.5,-94.07 4654.5,-94.07 4654.5,-73.07 4315.5,-73.07"/>
<polygon fill="none" stroke="black" points="4315.5,-73.07 4315.5,-94.07 4654.5,-94.07 4654.5,-73.07 4315.5,-73.07"/>
<text text-anchor="start" x="4318.5" y="-79.87" font-family="Times,serif" font-size="14.00">&#45;s 172.18.0.0/24 ! &#45;o docker0 &#45;j MASQUERADE</text>
<polygon fill="white" stroke="transparent" points="4315.5,-52.07 4315.5,-73.07 4654.5,-73.07 4654.5,-52.07 4315.5,-52.07"/>
<polygon fill="none" stroke="black" points="4315.5,-52.07 4315.5,-73.07 4654.5,-73.07 4654.5,-52.07 4315.5,-52.07"/>
<text text-anchor="start" x="4471.5" y="-58.87" font-family="Times,serif" font-size="14.00">end</text>
</g>
<!-- nat_MASQUERADE -->
<g id="node14" class="node">
<title>nat_MASQUERADE</title>
<polygon fill="white" stroke="transparent" points="4798,-94.07 4798,-115.07 4914,-115.07 4914,-94.07 4798,-94.07"/>
<polygon fill="none" stroke="black" points="4798,-94.07 4798,-115.07 4914,-115.07 4914,-94.07 4798,-94.07"/>
<text text-anchor="start" x="4801" y="-101.87" font-family="Times,serif" font-style="italic" font-size="14.00">MASQUERADE</text>
<polygon fill="white" stroke="transparent" points="4798,-73.07 4798,-94.07 4914,-94.07 4914,-73.07 4798,-73.07"/>
<polygon fill="none" stroke="black" points="4798,-73.07 4798,-94.07 4914,-94.07 4914,-73.07 4798,-73.07"/>
<text text-anchor="start" x="4844" y="-80.87" font-family="Times,serif" font-style="italic" font-size="14.00">nat</text>
<polygon fill="white" stroke="transparent" points="4798,-52.07 4798,-73.07 4914,-73.07 4914,-52.07 4798,-52.07"/>
<polygon fill="none" stroke="black" points="4798,-52.07 4798,-73.07 4914,-73.07 4914,-52.07 4798,-52.07"/>
<text text-anchor="start" x="4842.5" y="-58.87" font-family="Times,serif" font-size="14.00">end</text>
</g>
<!-- nat_POSTROUTING&#45;&gt;nat_MASQUERADE -->
<g id="edge7" class="edge">
<title>nat_POSTROUTING:rule_0&#45;&gt;nat_MASQUERADE:begin</title>
<path fill="none" stroke="white" d="M4654,-83.07C4714.5,-83.07 4732.11,-83.07 4787.91,-83.07"/>
<polygon fill="white" stroke="white" points="4788,-86.57 4798,-83.07 4788,-79.57 4788,-86.57"/>
</g>
<!-- mangle_PREROUTING&#45;&gt;nat_PREROUTING -->
<g id="edge9" class="edge">
<title>mangle_PREROUTING:end&#45;&gt;nat_PREROUTING:begin</title>
<path fill="none" stroke="red" d="M362,-509.07C422.5,-509.07 440.11,-509.07 495.91,-509.07"/>
<polygon fill="red" stroke="red" points="496,-512.57 506,-509.07 496,-505.57 496,-512.57"/>
</g>
<!-- mangle_INPUT&#45;&gt;filter_INPUT -->
<g id="edge11" class="edge">
<title>mangle_INPUT:end&#45;&gt;filter_INPUT:begin</title>
<path fill="none" stroke="red" d="M1025,-445.07C1190.49,-445.07 1234.26,-455.62 1394.76,-456.05"/>
<polygon fill="red" stroke="red" points="1395,-459.55 1405,-456.07 1395,-452.55 1395,-459.55"/>
</g>
<!-- mangle_OUTPUT&#45;&gt;nat_OUTPUT -->
<g id="edge15" class="edge">
<title>mangle_OUTPUT:end&#45;&gt;nat_OUTPUT:begin</title>
<path fill="none" stroke="red" d="M2826,-403.07C2889.15,-403.07 2907.44,-403.07 2965.86,-403.07"/>
<polygon fill="red" stroke="red" points="2966,-406.57 2976,-403.07 2966,-399.57 2966,-406.57"/>
</g>
<!-- mangle_FORWARD&#45;&gt;filter_FORWARD -->
<g id="edge21" class="edge">
<title>mangle_FORWARD:end&#45;&gt;filter_FORWARD:begin</title>
<path fill="none" stroke="red" d="M1036,-318.07C1097.71,-318.07 1113.09,-292.15 1169.74,-289.32"/>
<polygon fill="red" stroke="red" points="1170.09,-292.81 1180,-289.07 1169.92,-285.81 1170.09,-292.81"/>
</g>
<!-- mangle_POSTROUTING -->
<g id="node19" class="node">
<title>mangle_POSTROUTING</title>
<polygon fill="red" stroke="transparent" points="4053,-137.07 4053,-158.07 4171,-158.07 4171,-137.07 4053,-137.07"/>
<polygon fill="none" stroke="black" points="4053,-137.07 4053,-158.07 4171,-158.07 4171,-137.07 4053,-137.07"/>
<text text-anchor="start" x="4056" y="-144.87" font-family="Times,serif" font-style="italic" font-size="14.00">POSTROUTING</text>
<polygon fill="tomato" stroke="transparent" points="4053,-116.07 4053,-137.07 4171,-137.07 4171,-116.07 4053,-116.07"/>
<polygon fill="none" stroke="black" points="4053,-116.07 4053,-137.07 4171,-137.07 4171,-116.07 4053,-116.07"/>
<text text-anchor="start" x="4085.5" y="-123.87" font-family="Times,serif" font-style="italic" font-size="14.00">mangle</text>
<polygon fill="white" stroke="transparent" points="4053,-95.07 4053,-116.07 4171,-116.07 4171,-95.07 4053,-95.07"/>
<polygon fill="none" stroke="black" points="4053,-95.07 4053,-116.07 4171,-116.07 4171,-95.07 4053,-95.07"/>
<text text-anchor="start" x="4098.5" y="-101.87" font-family="Times,serif" font-size="14.00">end</text>
</g>
<!-- mangle_POSTROUTING&#45;&gt;nat_POSTROUTING -->
<g id="edge19" class="edge">
<title>mangle_POSTROUTING:end&#45;&gt;nat_POSTROUTING:begin</title>
<path fill="none" stroke="red" d="M4171,-105.07C4231.5,-105.07 4249.11,-105.07 4304.91,-105.07"/>
<polygon fill="red" stroke="red" points="4305,-108.57 4315,-105.07 4305,-101.57 4305,-108.57"/>
</g>
<!-- security_INPUT&#45;&gt;raw_OUTPUT -->
<g id="edge13" class="edge">
<title>security_INPUT:end&#45;&gt;raw_OUTPUT:begin</title>
<path fill="none" stroke="red" d="M2065,-445.07C2235.38,-445.07 2280.48,-445.07 2445.96,-445.07"/>
<polygon fill="red" stroke="red" points="2446,-448.57 2456,-445.07 2446,-441.57 2446,-448.57"/>
</g>
<!-- security_OUTPUT&#45;&gt;mangle_POSTROUTING -->
<g id="edge18" class="edge">
<title>security_OUTPUT:end&#45;&gt;mangle_POSTROUTING:begin</title>
<path fill="none" stroke="red" d="M3909,-222.07C3982.31,-222.07 3976.81,-134.86 4042.74,-126.68"/>
<polygon fill="red" stroke="red" points="4043.23,-130.16 4053,-126.07 4042.81,-123.17 4043.23,-130.16"/>
</g>
<!-- security_FORWARD&#45;&gt;mangle_POSTROUTING -->
<g id="edge23" class="edge">
<title>security_FORWARD:end&#45;&gt;mangle_POSTROUTING:begin</title>
<path fill="none" stroke="red" d="M2832,-14.07C3373.49,-14.07 3506.37,-124.65 4042.67,-126.05"/>
<polygon fill="red" stroke="red" points="4043,-129.55 4053,-126.07 4043,-122.55 4043,-129.55"/>
</g>
</g>
</svg>
